<svg width="51" height="40" viewBox="0 0 51 40" fill="none" xmlns="http://www.w3.org/2000/svg">
<path d="M18.2584 3.61619V18.182H3.63786V3.61619H18.2584ZM21.8983 0H0V21.7982H21.8983V0Z" fill="#D2A62C"></path>
<path d="M39.1241 7.32615C43.6689 7.32615 47.3535 10.9888 47.3535 15.5065C47.3535 20.0243 43.6689 23.6869 39.1241 23.6869C34.5793 23.6869 30.8947 20.0243 30.8947 15.5065C30.8947 10.9888 34.5793 7.32615 39.1241 7.32615ZM39.1241 3.70996C32.5804 3.70996 27.2568 9.00185 27.2568 15.5065C27.2568 22.0112 32.5804 27.3031 39.1241 27.3031C45.6678 27.3031 50.9914 22.0112 50.9914 15.5065C50.9914 9.00185 45.6678 3.70996 39.1241 3.70996Z" fill="#D2A62C"></path>
<path fill-rule="evenodd" clip-rule="evenodd" d="M9.18945 29.0479C9.62612 35.1602 14.7684 40.0006 21.0267 40.0006C25.8178 40.0006 29.9525 37.1643 31.8254 33.0918L28.6581 31.2632C27.4399 34.2651 24.4833 36.3844 21.0267 36.3844C16.7685 36.3844 13.2655 33.1691 12.8405 29.0479H9.18945Z" fill="#D2A62C"></path>
</svg>
